<svg width="18" height="48" viewBox="0 0 18 48" fill="none" xmlns="http://www.w3.org/2000/svg">
<path d="M13.9575 16.9268H12.8222C12.7319 15.9757 12.2901 15.0924 11.5833 14.4495C10.8765 13.8067 9.95543 13.4504 9 13.4504C8.04458 13.4504 7.12348 13.8067 6.41667 14.4495C5.70986 15.0924 5.26814 15.9757 5.1778 16.9268H4.0425C3.3532 16.9277 2.69237 17.2019 2.20496 17.6893C1.71755 18.1767 1.44335 18.8375 1.4425 19.5268V28.45C1.44335 29.1393 1.71755 29.8002 2.20496 30.2876C2.69237 30.775 3.3532 31.0492 4.0425 31.05H13.9575C14.6468 31.0492 15.3076 30.775 15.795 30.2876C16.2825 29.8002 16.5567 29.1393 16.5575 28.45V19.5269C16.5567 18.8376 16.2825 18.1768 15.7951 17.6893C15.3077 17.2019 14.6468 16.9277 13.9575 16.9268ZM9 14.65C9.63739 14.652 10.2528 14.883 10.7342 15.3009C11.2155 15.7187 11.5306 16.2956 11.6221 16.9264H6.3779C6.46941 16.2956 6.78454 15.7187 7.26586 15.3009C7.74717 14.883 8.36262 14.652 9 14.65ZM15.3574 28.45C15.357 28.8212 15.2094 29.1771 14.9469 29.4396C14.6845 29.702 14.3286 29.8497 13.9574 29.85H4.0425C3.67132 29.8497 3.31544 29.702 3.05296 29.4396C2.79049 29.1771 2.64288 28.8212 2.6425 28.45V19.5269C2.64288 19.1557 2.79049 18.7999 3.05296 18.5374C3.31544 18.2749 3.67132 18.1273 4.0425 18.1269H13.9575C14.3287 18.1273 14.6846 18.2749 14.947 18.5374C15.2095 18.7999 15.3571 19.1557 15.3575 19.5269L15.3574 28.45Z" fill="black" fill-opacity="0.8"/>
</svg>
