<svg width="18" height="48" viewBox="0 0 18 48" fill="none" xmlns="http://www.w3.org/2000/svg">
<path d="M16.7294 29.9555L12.5539 25.8734C13.5508 24.5735 14.0175 22.9439 13.86 21.3134C13.7026 19.6828 12.9326 18.1727 11.7053 17.0876C10.4781 16.0025 8.88506 15.4232 7.24751 15.4666C5.60996 15.51 4.0498 16.1729 2.88178 17.3214C1.71375 18.47 1.02479 20.0188 0.953885 21.6554C0.882978 23.2919 1.4354 24.8945 2.49971 26.1398C3.56401 27.3851 5.061 28.1804 6.68866 28.3652C8.31632 28.5501 9.95353 28.1108 11.27 27.1359L15.4705 31.2425C15.555 31.3251 15.655 31.3903 15.7647 31.4344C15.8744 31.4784 15.9917 31.5004 16.1099 31.4991C16.2281 31.4978 16.3448 31.4732 16.4535 31.4267C16.5622 31.3803 16.6607 31.3129 16.7434 31.2284C16.826 31.1439 16.8912 31.0439 16.9353 30.9342C16.9793 30.8245 17.0013 30.7072 17 30.589C16.9987 30.4708 16.9741 30.354 16.9276 30.2453C16.8812 30.1366 16.8139 30.0381 16.7294 29.9555ZM2.19999 21.9538C2.20141 20.9166 2.51026 19.9032 3.08751 19.0415C3.66476 18.1798 4.48449 17.5086 5.4431 17.1127C6.40172 16.7168 7.45619 16.6139 8.47324 16.8172C9.49029 17.0204 10.4243 17.5205 11.1572 18.2544C11.89 18.9883 12.3889 19.923 12.5907 20.9403C12.7925 21.9576 12.6882 23.0119 12.291 23.97C11.8938 24.9281 11.2214 25.7469 10.359 26.323C9.49652 26.899 8.48264 27.2065 7.44549 27.2065C6.05381 27.204 4.71995 26.6496 3.73656 25.6648C2.75317 24.6801 2.20057 23.3455 2.19999 21.9538Z" fill="black" fill-opacity="0.8"/>
</svg>
