<svg width="78" height="14" viewBox="0 0 78 14" fill="none" xmlns="http://www.w3.org/2000/svg">
<path d="M13.667 13.7507V1.06509H21.5881V2.76148H15.636V6.77933H21.0863V8.441H15.636V13.7507H13.667ZM22.9147 2.05826C22.9147 1.45229 23.4061 0.967852 24.0138 0.967852C24.6198 0.967852 25.1129 1.45229 25.1129 2.05826C25.1129 2.65556 24.6215 3.14868 24.0138 3.14868C23.4061 3.14868 22.9147 2.6573 22.9147 2.05826ZM23.064 4.50301H24.9636V13.7507H23.064V4.50301ZM29.6551 2.3135V4.50301H31.4123V6.00667H29.6551V11.1045C29.6551 11.905 30.0058 12.2644 30.7802 12.2644C30.973 12.2644 31.282 12.247 31.4036 12.221V13.7246C31.1935 13.7767 30.7716 13.8132 30.3479 13.8132C28.4761 13.8132 27.7451 13.1013 27.7451 11.3163V6.00667H26.3995V4.50301H27.7451V2.3135H29.6551ZM33.0062 4.50301H34.8172V6.05008H34.8606C35.3624 4.99439 36.3469 4.345 37.7707 4.345C39.8109 4.345 40.9794 5.64551 40.9794 7.76383V13.7507H39.0712V8.13367C39.0712 6.74461 38.4201 5.98062 37.1022 5.98062C35.7652 5.98062 34.904 6.93039 34.904 8.36286V13.7524H33.0045V4.50301H33.0062ZM50.5587 11.0333C50.2948 12.721 48.6956 13.926 46.5773 13.926C43.8617 13.926 42.2174 12.089 42.2174 9.17025C42.2174 6.26885 43.8878 4.33459 46.4992 4.33459C49.0655 4.33459 50.6664 6.14557 50.6664 8.94974V9.60086H44.1343V9.71546C44.1343 11.3233 45.1014 12.3877 46.6225 12.3877C47.7042 12.3877 48.5046 11.8425 48.7581 11.0333H50.5587ZM44.1413 8.27431H48.7651C48.7217 6.8592 47.824 5.86602 46.4975 5.86602C45.1692 5.86602 44.2368 6.87657 44.1413 8.27431ZM55.5159 4.33632C57.669 4.33632 59.0667 5.53265 59.1292 7.23772H57.3443C57.2384 6.34178 56.5803 5.77921 55.5159 5.77921C54.488 5.77921 53.8022 6.28101 53.8022 7.01894C53.8022 7.59888 54.2241 7.99476 55.226 8.22395L56.7296 8.56601C58.6205 9.0053 59.341 9.74324 59.341 11.0802C59.341 12.7679 57.7679 13.9278 55.5871 13.9278C53.2743 13.9278 51.8853 12.794 51.7099 11.0351H53.5903C53.7657 12.0022 54.4255 12.4762 55.5854 12.4762C56.7279 12.4762 57.4311 12.0022 57.4311 11.2452C57.4311 10.6479 57.089 10.2954 56.0768 10.0662L54.5731 9.71546C52.8142 9.31089 51.9443 8.46704 51.9443 7.12139C51.9478 5.47014 53.3889 4.33632 55.5159 4.33632ZM64.1038 4.33632C66.2568 4.33632 67.6546 5.53265 67.7171 7.23772H65.9321C65.8262 6.34178 65.1682 5.77921 64.1038 5.77921C63.0759 5.77921 62.39 6.28101 62.39 7.01894C62.39 7.59888 62.812 7.99476 63.8138 8.22395L65.3175 8.56601C67.2083 9.0053 67.9289 9.74324 67.9289 11.0802C67.9289 12.7679 66.3558 13.9278 64.175 13.9278C61.8622 13.9278 60.4731 12.794 60.2978 11.0351H62.1782C62.3536 12.0022 63.0134 12.4762 64.1732 12.4762C65.3157 12.4762 66.019 12.0022 66.019 11.2452C66.019 10.6479 65.6769 10.2954 64.6646 10.0662L63.161 9.71546C61.4021 9.31089 60.5322 8.46704 60.5322 7.12139C60.5339 5.47014 61.9768 4.33632 64.1038 4.33632ZM74.3464 13.7628H72.6153V9.99501H69.028V8.28125H72.6153V4.51516H74.3464V8.28125H77.9423V9.99501H74.3464V13.7628ZM7.63676 2.30482C8.11773 1.72315 8.44068 0.914026 8.35213 0.110107C7.66107 0.137889 6.82416 0.570234 6.32757 1.1519C5.88308 1.66585 5.4924 2.49061 5.59832 3.2789C6.36925 3.33794 7.15754 2.88649 7.63676 2.30482ZM8.33477 3.4317C7.20268 3.34835 6.24249 4.06372 5.70771 4.06372C5.16424 4.06372 4.32559 3.44906 3.43833 3.46642C2.27152 3.48379 1.19673 4.14533 0.594229 5.19059C-0.617726 7.29328 0.285163 10.41 1.46586 12.1168C2.04406 12.9502 2.73165 13.8913 3.63627 13.8566C4.50617 13.8219 4.83607 13.294 5.88828 13.294C6.9405 13.294 7.23741 13.8566 8.15766 13.841C9.09528 13.8236 9.6891 12.9902 10.2621 12.1515C10.9254 11.1844 11.198 10.2468 11.2136 10.1964C11.1928 10.1877 9.38698 9.49494 9.36962 7.41483C9.35399 5.67503 10.7899 4.83986 10.8542 4.79818C10.0381 3.59665 8.77927 3.46469 8.33477 3.4317Z" fill="black"/>
</svg>
