<svg width="27" height="33" viewBox="0 0 27 33" fill="none" xmlns="http://www.w3.org/2000/svg">
<path d="M25.672 11.3276C24.628 11.968 23.7632 12.8633 23.1586 13.9297C22.554 14.9961 22.2293 16.1988 22.215 17.4252C22.2191 18.8055 22.6273 20.1542 23.3889 21.3044C24.1506 22.4545 25.2323 23.3556 26.5 23.8959C26.0002 25.5116 25.2604 27.0428 24.3057 28.4378C22.9395 30.4082 21.5111 32.3784 19.3376 32.3784C17.1641 32.3784 16.6051 31.1132 14.1003 31.1132C11.6576 31.1132 10.7882 32.4199 8.80088 32.4199C6.8136 32.4199 5.42681 30.5948 3.83278 28.3549C1.72718 25.2171 0.56997 21.5373 0.5 17.7569C0.5 11.535 4.53669 8.23748 8.51105 8.23748C10.6226 8.23748 12.3822 9.62689 13.707 9.62689C14.9698 9.62689 16.9364 8.15435 19.3376 8.15435C20.5722 8.12244 21.7956 8.39517 22.9003 8.94852C24.0049 9.50187 24.9567 10.3189 25.672 11.3276ZM18.1991 5.52052C19.2576 4.273 19.8568 2.69938 19.8966 1.06252C19.8984 0.846729 19.8775 0.631351 19.8344 0.419922C18.0162 0.597868 16.3349 1.46609 15.1353 2.84652C14.0666 4.04432 13.4449 5.57592 13.3757 7.18102C13.3765 7.37622 13.3974 7.57083 13.4379 7.76177C13.5812 7.78891 13.7267 7.80282 13.8726 7.80333C14.7106 7.73653 15.5262 7.49971 16.27 7.10728C17.0137 6.71484 17.6701 6.17499 18.1991 5.52052Z" fill="black" fill-opacity="0.8"/>
</svg>
